<?xml version="1.0" standalone="no"?><!DOCTYPE svg PUBLIC "-//W3C//DTD SVG 1.1//EN" "http://www.w3.org/Graphics/SVG/1.1/DTD/svg11.dtd"><svg t="1565225857818" class="icon" viewBox="0 0 1024 1024" version="1.1" xmlns="http://www.w3.org/2000/svg" p-id="1706" xmlns:xlink="http://www.w3.org/1999/xlink" width="200" height="200"><defs><style type="text/css"></style></defs><path d="M703.028 473.862c28.959 1.609 53.090 14.478 53.090 14.478v-12.87c0-27.348-22.523-49.872-49.872-49.872s-48.265 22.523-48.265 49.872c0 0 14.478-3.219 45.045-1.609zM321.743 166.584c1.609-35.394 3.219-69.178 3.219-69.178l-136.749 139.964s45.045-6.434 72.396-8.043c28.959-1.609 57.917-1.609 57.917-1.609s1.609-25.741 3.219-61.134zM588.804 136.016s204.317-9.653 252.582 38.61c32.174 33.786 22.523 53.090 25.741 109.398s17.696 191.446 9.653 299.236c-9.653 139.964-43.437 276.714-80.441 316.933-38.61 40.22-194.663 46.657-246.146 14.478-38.61-24.132-37.003-143.184-8.043-178.578 28.959-37.003 112.617-22.523 112.617-22.523l-4.827 56.308s-37.003-6.434-51.483 8.043c-14.478 14.478-6.434 54.7 6.434 62.742s91.7 12.87 122.268-6.434c30.567-17.696 12.87-114.225 3.219-141.573-8.043-27.348-48.265-35.394-48.265-35.394s-78.831-1.609-117.441-20.914c-38.61-19.305-41.828-111.006-41.828-111.006s-3.219 144.794-43.437 156.052c-40.22 11.263-234.884-33.786-250.973-54.7-27.348-37.003-65.962-247.756-65.962-304.063s35.394-59.525 56.308-64.353c20.914-4.827 107.79 3.219 123.879-9.653 14.478-12.87 1.609-122.268 14.478-143.184 14.478-20.914 27.348-45.045 123.879-40.22 98.137 6.434 107.79 70.787 107.79 70.787z" fill="" p-id="1707"></path></svg>